PathFileType	4	(X/Y/Z)	C:\Users\T490\OneDrive\Desktop\110_Internship_Tasks\Sprint GSG Position Analysis\results\sports2d_output\sprint_video_Sports2D\sprint_video_Sports2D_m_person00.trc
DataRate	CameraRate	NumFrames	NumMarkers	Units	OrigDataRate	OrigDataStartFrame	OrigNumFrames
25.0	25.0	9	22	m	25.0	130	523
Frame#	Time	Hip			RHip			RKnee			RAnkle			RBigToe			RSmallToe			RHeel			LHip			LKnee			LAnkle			LBigToe			LSmallToe			LHeel			Neck			Head			Nose			RShoulder			RElbow			RWrist			LShoulder			LElbow			LWrist			
		X1	Y1	Z1	X2	Y2	Z2	X3	Y3	Z3	X4	Y4	Z4	X5	Y5	Z5	X6	Y6	Z6	X7	Y7	Z7	X8	Y8	Z8	X9	Y9	Z9	X10	Y10	Z10	X11	Y11	Z11	X12	Y12	Z12	X13	Y13	Z13	X14	Y14	Z14	X15	Y15	Z15	X16	Y16	Z16	X17	Y17	Z17	X18	Y18	Z18	X19	Y19	Z19	X20	Y20	Z20	X21	Y21	Z21	X22	Y22	Z22
130	5.209318996415771	3.518232545392585	0.4761511888741372	0.0301	3.5183970135788396	0.4654604483612549	0.0301	3.1982762952377266	0.30902813266241946	0.129	3.4979339827546068	0.113366930997635	0.023	3.432854837798334	-0.007248352938625103	0.2179	3.446577154556507	0.021679023263053397	0.1804	3.5665108530548277	0.11047410768977084	-0.0119	3.5110575386195166	0.45721707213687934	0.0301	3.1524351858012785	0.28196161923912333	0.129	3.510584707568441	0.09792743010542719	0.023	3.4407678438108187	-0.02747425058595519	0.2179	3.47613171660195	-0.01686543927259139	0.1804	3.5684373954696222	0.1015954879103111	-0.0119	3.023668837241447	0.43962128170293113	0.0008	2.836872797383929	0.3021601030492389	0.0655	2.974931738378123	0.28334719619622817	0.1076	3.0489445211213866	0.487202953419083	-0.01275	3.01903299903214	0.21899133438963417	0.0702	2.9234449201391564	0.03304024008386421	0.1076	3.0244792318363727	0.4554448744835925	-0.01275	2.9560116697528582	0.19685287187005315	0.0702	2.8520016110943605	-0.0011525782316593191	0.1076
131	5.249390681003584	3.5025186946595825	0.5144213385630199	0.0301	3.503230902878534	0.5054602335150473	0.0301	3.191192711747836	0.31697095314106344	0.129	3.492720453595426	0.11836496728457806	0.023	3.4297896870503277	-0.0011609672594714447	0.2179	3.4508653932865028	0.028428848639183133	0.1804	3.5623515759553257	0.1107727555021758	-0.0119	3.4966599804440124	0.4947483896937874	0.0301	3.1528414420845947	0.2933387684954141	0.129	3.503838698823206	0.10056784225960361	0.023	3.431077525292366	-0.027077968249924086	0.2179	3.4662330281091265	-0.014432385865639453	0.1804	3.5627217894532817	0.1020684968526743	-0.0119	3.008813802933849	0.44643489004112935	0.0008	2.8281143093360526	0.3016236835459019	0.0655	2.964707323173725	0.28992999944252024	0.1076	3.0344044169362516	0.4929829844419688	-0.01275	3.0116130593021677	0.22721316169250078	0.0702	2.930668513944836	0.04017406430657889	0.1076	3.0097584698648028	0.461176855087064	-0.01275	2.9445941405617257	0.20735731092303705	0.0702	2.852036662290751	0.0055115997361125605	0.1076
132	5.2894623655913975	3.48759581688474	0.5473700945869194	0.0301	3.488408506427053	0.5386873358388066	0.0301	3.184602888897271	0.32329584601781125	0.129	3.4963215212474794	0.12650123156195947	0.023	3.4356592485081503	0.00613363645454373	0.2179	3.45989235648898	0.035171686335124824	0.1804	3.564106350763741	0.11469178776484298	-0.0119	3.483224307384124	0.5280643420505108	0.0301	3.157236666618692	0.2992086850880539	0.129	3.5072927828169833	0.11135653177176558	0.023	3.426802683449112	-0.018124428249650895	0.2179	3.4620601420939017	-0.004390751166305143	0.1804	3.567697539852548	0.11042568185181406	-0.0119	2.9992023644920485	0.4534584431743661	0.0008	2.8240275684327805	0.2986432111901785	0.0655	2.956987933507278	0.295447747259988	0.1076	3.0228127819955346	0.5005453931050233	-0.01275	3.0039442944718524	0.23167983098352213	0.0702	2.9312380642578715	0.04186312392607715	0.1076	2.9994074472136365	0.46593324744347353	-0.01275	2.936293214938537	0.21244960888300668	0.0702	2.8476584894718227	0.004241426842472505	0.1076
133	5.329534050179212	3.4748249524495978	0.5753328135609312	0.0301	3.4728592380665804	0.5641153917009394	0.0301	3.1953887728756323	0.3217553154095434	0.129	3.506994477830075	0.12953912904099288	0.023	3.44600269014923	0.0033006926076055926	0.2179	3.4703022470543927	0.03328789558443372	0.1804	3.5639512421936903	0.1145957370758519	-0.0119	3.4725750502492856	0.5613971207819302	0.0301	3.1703121690864378	0.2941724511973493	0.129	3.5358512462322946	0.13877229251803508	0.023	3.4582842945436107	0.00075392833704319	0.2179	3.4937913734953763	0.016660546059002152	0.1804	3.597374816360996	0.1384880994746295	-0.0119	2.9919183261908606	0.4575324537238568	0.0008	2.8188833808314806	0.29629899979450225	0.0655	2.950532943884553	0.29700325622416274	0.1076	3.015697602031122	0.5084899412157532	-0.01275	2.9985951275705305	0.23469846217106594	0.0702	2.9310294139329947	0.041740661341627225	0.1076	2.991446168258482	0.47020408490134014	-0.01275	2.9252191702547456	0.21130544547708488	0.0702	2.8428620481987137	0.00033095082900057266	0.1076
134	5.369605734767025	3.4607172837234197	0.5994450095616013	0.0301	3.449918280568538	0.5828972025414418	0.0301	3.227191269068472	0.31183907619704526	0.129	3.516673420015619	0.12042456899410287	0.023	3.4492268506614194	-0.009334913807582177	0.2179	3.4707810143216573	0.02190695697589003	0.1804	3.563749315351666	0.10481637326283949	-0.0119	3.462804756203042	0.5904992378678028	0.0301	3.197834907739026	0.2769446187033189	0.129	3.5890823760613633	0.178692473731059	0.023	3.5398577614116777	0.027867841180086318	0.2179	3.571423052588069	0.046677968385071066	0.1804	3.6498869541025294	0.18647650557669748	-0.0119	2.985538003746521	0.45791418180516835	0.0008	2.811409669149952	0.2939895142654668	0.0655	2.944725067613471	0.2968170542555328	0.1076	3.0137577311939974	0.5125201252039829	-0.01275	2.9944517617982878	0.236601078957043	0.0702	2.930543633770439	0.04138062389740945	0.1076	2.9825338779417057	0.4720365688519525	-0.01275	2.914398247653193	0.20848577114885325	0.0702	2.8411067316557594	-0.0009201697648209472	0.1076
135	5.409677419354839	3.4425698742990414	0.618869749546749	0.0301	3.419861182943969	0.5980835447032458	0.0301	3.2647891964528224	0.3049920443080999	0.129	3.52442850444782	0.10738737444512919	0.023	3.447120075570182	-0.016744791573234993	0.2179	3.462898254160721	0.011796291386987559	0.1804	3.5737423858476873	0.09184867977093861	-0.0119	3.453677016005507	0.6101781035310361	0.0301	3.245488283350953	0.2527314571090343	0.129	3.6523807828953143	0.21457499556754223	0.023	3.6499460796043284	0.059115268193553255	0.2179	3.6735596131850823	0.07897994492484642	0.1804	3.710640575861652	0.23495924449353092	-0.0119	2.980537525703575	0.4587547921368845	0.0008	2.803540339362515	0.29119535959933013	0.0655	2.9401068080362296	0.2982384289918515	0.1076	3.0141705440939806	0.5108218361564028	-0.01275	2.990462740189559	0.23692968503233752	0.0702	2.9261454371990174	0.0400004428888578	0.1076	2.9716128494813527	0.47062005342475655	-0.01275	2.9103950511733783	0.20520376964210785	0.0702	2.8416068872628797	-0.0009510609030470541	0.1076
136	5.449749103942652	3.424211197913137	0.6319786861505429	0.0301	3.3920662388875273	0.6093118306361999	0.0301	3.2866559201718446	0.3105236830566064	0.129	3.5328617226979517	0.10142454048214959	0.023	3.4486941564232843	-0.015505018891291052	0.2179	3.4608336954142254	0.008971496082498517	0.1804	3.5914677095404697	0.08289753167275579	-0.0119	3.447799549377765	0.6239567887574335	0.0301	3.313871246487933	0.23359134092811473	0.129	3.720546620915295	0.2335485891367	0.023	3.759290829008541	0.08453389081035043	0.2179	3.775810183860006	0.10339609426351724	0.1804	3.775438021355556	0.2634305652121699	-0.0119	2.9771195586824013	0.46294370006272234	0.0008	2.796484116733781	0.28951880828189	0.0655	2.93673157122855	0.30116617067009	0.1076	3.0131650256898417	0.5079078341042119	-0.01275	2.9866829429284563	0.2375500565340795	0.0702	2.918732219552468	0.0353403538653072	0.1076	2.962189843548087	0.47054426709408675	-0.01275	2.9113732045449394	0.20568588164667026	0.0702	2.842896150306782	-0.0015982428926067324	0.1076
137	5.489820788530466	3.4112594190222487	0.6388173161297163	0.0301	3.371527552845828	0.611795584145702	0.0301	3.282256542817233	0.3188539473449425	0.129	3.5383451437899844	0.10091888413482251	0.023	3.4524205605872393	-0.015646860752355794	0.2179	3.4656715327499956	0.008181323478940862	0.1804	3.6027479186630016	0.07755841714961592	-0.0119	3.443720425020048	0.6355957865893052	0.0301	3.3957490113478337	0.2272664428341757	0.129	3.79911487813553	0.2363026229689151	0.023	3.8546722376362723	0.09088724483951907	0.2179	3.8680720026846327	0.10711428925771409	0.1804	3.85146665009939	0.26918931718071065	-0.0119	2.9753826650052893	0.46784182409161257	0.0008	2.7912708739776693	0.2881585077813929	0.0655	2.933954775328337	0.303607101499344	0.1076	3.012613282805959	0.5069044137251514	-0.01275	2.983411920862034	0.2414567204240938	0.0702	2.915216338187722	0.028118550067383626	0.1076	2.957133847268216	0.47572452560300776	-0.01275	2.9118958252159786	0.21770183839800306	0.0702	2.8453956065364028	0.001084295401628436	0.1076
138	5.52989247311828	3.404227809762285	0.6387407935602897	0.0301	3.358201149902007	0.6040383368270477	0.0301	3.262203536930277	0.31912387599889264	0.129	3.5368714891903315	0.10086556938071188	0.023	3.4568855371121034	-0.01815305380789802	0.2179	3.469398745765986	0.00603540788643424	0.1804	3.6012111951514223	0.07607857617800444	-0.0119	3.438629255724816	0.6412227411340888	0.0301	3.4817960002835786	0.2305640358691764	0.129	3.8863670480903574	0.23228647380205722	0.023	3.9318714013828684	0.07741315779123589	0.2179	3.947318462260678	0.08975897111402076	0.1804	3.9397743170856407	0.26198923460012097	-0.0119	2.9752424862948876	0.4709966852984116	0.0008	2.790410781186681	0.2848124310140106	0.0655	2.935593745834024	0.305975396095719	0.1076	3.017151124830056	0.5060037901023376	-0.01275	2.9825193501768497	0.24537409970558055	0.0702	2.916751608891487	0.023334541285163567	0.1076	2.956230762068564	0.484027476511475	-0.01275	2.912701933728214	0.2339453781482888	0.0702	2.8496361085398267	0.00849544459881026	0.1076
